<svg width="50" height="14" viewBox="0 0 50 14" fill="none"   preserveAspectRatio="none" xmlns="http://www.w3.org/2000/svg">
<path d="M6.00006 0.00192261H2.11098C1.84485 0.00192261 1.61852 0.195268 1.577 0.45799L0.00408279 10.4306C-0.0271937 10.6274 0.125207 10.8048 0.324808 10.8048H2.18149C2.44763 10.8048 2.67396 10.6115 2.71547 10.3482L3.13969 7.6584C3.18063 7.39511 3.40753 7.20176 3.67309 7.20176H4.90425C7.46607 7.20176 8.9446 5.96208 9.33072 3.50545C9.50473 2.43068 9.33811 1.58622 8.83485 0.994808C8.28211 0.345395 7.30173 0.00192261 6.00006 0.00192261ZM6.44874 3.64421C6.23606 5.03971 5.16981 5.03971 4.13883 5.03971H3.55197L3.96368 2.43352C3.98813 2.27601 4.12461 2.16 4.28384 2.16H4.55282C5.25511 2.16 5.91761 2.16 6.25994 2.56034C6.46409 2.79918 6.52664 3.15402 6.44874 3.64421Z" fill="#253B80"/>
<path d="M17.625 3.59791H15.7626C15.6039 3.59791 15.4669 3.71392 15.4424 3.87143L15.36 4.39233L15.2298 4.20353C14.8266 3.61838 13.9275 3.42276 13.0302 3.42276C10.9722 3.42276 9.21445 4.98146 8.87212 7.16797C8.69413 8.25867 8.94718 9.3016 9.56589 10.0289C10.1334 10.6977 10.9455 10.9763 11.9116 10.9763C13.5698 10.9763 14.4894 9.91006 14.4894 9.91006L14.4063 10.4275C14.3751 10.6254 14.5275 10.8029 14.7259 10.8029H16.4035C16.6702 10.8029 16.8954 10.6095 16.9375 10.3462L17.944 3.97209C17.9758 3.7759 17.824 3.59791 17.625 3.59791ZM15.029 7.22256C14.8493 8.28653 14.0049 9.00077 12.9278 9.00077C12.387 9.00077 11.9548 8.82733 11.6773 8.49864C11.4021 8.17223 11.2975 7.70763 11.385 7.19015C11.5528 6.13528 12.4115 5.39773 13.472 5.39773C14.0009 5.39773 14.4308 5.57344 14.714 5.90497C14.9978 6.23991 15.1103 6.70736 15.029 7.22256Z" fill="#253B80"/>
<path d="M27.5437 3.5979H25.6722C25.4937 3.5979 25.3259 3.68661 25.2247 3.83503L22.6435 7.63711L21.5494 3.98345C21.4806 3.75485 21.2697 3.5979 21.0308 3.5979H19.1918C18.9683 3.5979 18.813 3.81627 18.8841 4.02667L20.9455 10.0761L19.0075 12.8119C18.8551 13.0275 19.0087 13.3237 19.2719 13.3237H21.1411C21.3186 13.3237 21.4846 13.2373 21.5853 13.0917L27.8098 4.10685C27.9588 3.8919 27.8059 3.5979 27.5437 3.5979Z" fill="#253B80"/>
<path d="M33.7403 0.000549316H29.8506C29.5851 0.000549316 29.3588 0.193895 29.3172 0.456617L27.7443 10.4293C27.713 10.626 27.8654 10.8034 28.0639 10.8034H30.0599C30.2453 10.8034 30.404 10.6681 30.433 10.4838L30.8794 7.65702C30.9203 7.39373 31.1472 7.20039 31.4128 7.20039H32.6434C35.2057 7.20039 36.6837 5.9607 37.0704 3.50408C37.245 2.42931 37.0772 1.58484 36.5739 0.993434C36.0218 0.344022 35.042 0.000549316 33.7403 0.000549316ZM34.189 3.64283C33.9769 5.03833 32.9106 5.03833 31.8791 5.03833H31.2928L31.7051 2.43215C31.7295 2.27463 31.8648 2.15862 32.0246 2.15862H32.2936C32.9954 2.15862 33.6584 2.15862 34.0007 2.55896C34.2049 2.7978 34.2669 3.15265 34.189 3.64283Z" fill="#179BD7"/>
<path d="M45.3642 3.59791H43.503C43.3432 3.59791 43.2073 3.71392 43.1834 3.87143L43.101 4.39233L42.9702 4.20353C42.567 3.61838 41.6685 3.42276 40.7712 3.42276C38.7132 3.42276 36.956 4.98146 36.6137 7.16797C36.4362 8.25867 36.6882 9.3016 37.3069 10.0289C37.8755 10.6977 38.6864 10.9763 39.6526 10.9763C41.3108 10.9763 42.2303 9.91006 42.2303 9.91006L42.1473 10.4275C42.116 10.6254 42.2684 10.8029 42.468 10.8029H44.145C44.4106 10.8029 44.6369 10.6095 44.6784 10.3462L45.6855 3.97209C45.7162 3.7759 45.5638 3.59791 45.3642 3.59791ZM42.7683 7.22256C42.5897 8.28653 41.7441 9.00077 40.6671 9.00077C40.1274 9.00077 39.6941 8.82733 39.4166 8.49864C39.1414 8.17223 39.0379 7.70763 39.1243 7.19015C39.2932 6.13528 40.1507 5.39773 41.2113 5.39773C41.7402 5.39773 42.1701 5.57344 42.4533 5.90497C42.7382 6.23991 42.8508 6.70736 42.7683 7.22256Z" fill="#179BD7"/>
<path d="M47.5598 0.274095L45.9636 10.4293C45.9323 10.626 46.0847 10.8035 46.2831 10.8035H47.8879C48.1546 10.8035 48.3809 10.6101 48.4219 10.3468L49.9959 0.374749C50.0272 0.177991 49.8748 0 49.6764 0H47.8794C47.7207 0.000568663 47.5842 0.116576 47.5598 0.274095Z" fill="#179BD7"/>
</svg>
